<?xml version="1.0" encoding="UTF-8" standalone="no"?>
<svg
   xmlns:dc="http://purl.org/dc/elements/1.1/"
   xmlns:cc="http://creativecommons.org/ns#"
   xmlns:rdf="http://www.w3.org/1999/02/22-rdf-syntax-ns#"
   xmlns:svg="http://www.w3.org/2000/svg"
   xmlns="http://www.w3.org/2000/svg"
   xmlns:sodipodi="http://sodipodi.sourceforge.net/DTD/sodipodi-0.dtd"
   xmlns:inkscape="http://www.inkscape.org/namespaces/inkscape"
   width="512"
   height="512"
   viewBox="0 0 135.46666 135.46667"
   version="1.1"
   id="svg8"
   sodipodi:docname="hpa.svg"
   inkscape:version="1.0.1 (3bc2e813f5, 2020-09-07)">
  <defs
     id="defs2">
    <rect
       x="-52.282967"
       y="-34.851211"
       width="7.2099513"
       height="19.337606"
       id="rect1444" />
    <filter
       inkscape:collect="always"
       style="color-interpolation-filters:sRGB"
       id="filter857"
       x="-1.6979314e-05"
       width="1.000034"
       y="-2.6553722e-05"
       height="1.0000531">
      <feGaussianBlur
         inkscape:collect="always"
         stdDeviation="0.00081498152"
         id="feGaussianBlur859" />
    </filter>
    <filter
       inkscape:collect="always"
       style="color-interpolation-filters:sRGB"
       id="filter857-4"
       x="-1.6979315e-05"
       width="1.000034"
       y="-2.6553722e-05"
       height="1.000053">
      <feGaussianBlur
         inkscape:collect="always"
         stdDeviation="0.00081498152"
         id="feGaussianBlur859-8" />
    </filter>
  </defs>
  <sodipodi:namedview
     id="base"
     pagecolor="#ffffff"
     bordercolor="#666666"
     borderopacity="1.0"
     inkscape:pageopacity="0.0"
     inkscape:pageshadow="2"
     inkscape:zoom="1.0214508"
     inkscape:cx="221.77758"
     inkscape:cy="143.46045"
     inkscape:document-units="mm"
     inkscape:current-layer="layer1"
     inkscape:document-rotation="0"
     showgrid="false"
     units="px"
     inkscape:window-width="1848"
     inkscape:window-height="1016"
     inkscape:window-x="72"
     inkscape:window-y="27"
     inkscape:window-maximized="1" />
  <metadata
     id="metadata5">
    <rdf:RDF>
      <cc:Work
         rdf:about="">
        <dc:format>image/svg+xml</dc:format>
        <dc:type
           rdf:resource="http://purl.org/dc/dcmitype/StillImage" />
        <dc:title></dc:title>
      </cc:Work>
    </rdf:RDF>
  </metadata>
  <g
     inkscape:label="Layer 1"
     inkscape:groupmode="layer"
     id="layer1">
    <g
       aria-label="HPA"
       id="text835"
       style="font-size:63.5px;line-height:1.25;font-family:Rubik;-inkscape-font-specification:Rubik;letter-spacing:0px;word-spacing:0px;stroke-width:0.264583;filter:url(#filter857)">
      <path
         d="m 5.5034157,89.958336 q -0.6985,0 -1.143,-0.4445 -0.4445,-0.4445 -0.4445,-1.143 v -41.275 q 0,-0.6985 0.4445,-1.143 0.4445,-0.4445 1.143,-0.4445 h 8.1915003 q 0.6985,0 1.143,0.4445 0.508,0.4445 0.508,1.143 v 15.3035 h 15.621 v -15.3035 q 0,-0.6985 0.4445,-1.143 0.4445,-0.4445 1.143,-0.4445 h 8.1915 q 0.6985,0 1.143,0.4445 0.4445,0.4445 0.4445,1.143 v 41.275 q 0,0.635 -0.4445,1.143 -0.4445,0.4445 -1.143,0.4445 h -8.1915 q -0.6985,0 -1.143,-0.4445 -0.4445,-0.508 -0.4445,-1.143 v -15.8115 h -15.621 v 15.8115 q 0,0.635 -0.508,1.143 -0.4445,0.4445 -1.143,0.4445 z"
         style="font-style:normal;font-variant:normal;font-weight:bold;font-stretch:normal;font-size:63.5px;font-family:Rubik;-inkscape-font-specification:'Rubik Bold';stroke-width:0.264583"
         id="path1517" />
      <path
         d="m 52.81085,89.958336 q -0.6985,0 -1.143,-0.4445 -0.4445,-0.508 -0.4445,-1.143 v -41.275 q 0,-0.6985 0.4445,-1.143 0.4445,-0.4445 1.143,-0.4445 h 17.78 q 5.2705,0 9.144,1.651 3.937,1.5875 6.096,4.826 2.2225,3.2385 2.2225,8.1915 0,4.8895 -2.2225,8.0645 -2.159,3.175 -6.096,4.699 -3.8735,1.524 -9.144,1.524 h -7.5565 v 13.9065 q 0,0.635 -0.508,1.143 -0.4445,0.4445 -1.143,0.4445 z m 10.033,-24.257 h 7.4295 q 2.7305,0 4.318,-1.397 1.651,-1.397 1.651,-4.2545 0,-2.413 -1.397,-4.064 -1.397,-1.651 -4.572,-1.651 h -7.4295 z"
         style="font-style:normal;font-variant:normal;font-weight:bold;font-stretch:normal;font-size:63.5px;font-family:Rubik;-inkscape-font-specification:'Rubik Bold';stroke-width:0.264583"
         id="path1519" />
      <path
         d="m 88.561249,89.958336 q -0.508,0 -0.9525,-0.381 -0.381,-0.4445 -0.381,-0.9525 0,-0.3175 0.0635,-0.5715 l 14.922501,-40.767 q 0.1905,-0.6985 0.762,-1.2065 0.635,-0.5715 1.7145,-0.5715 h 9.398 q 1.0795,0 1.651,0.5715 0.635,0.508 0.8255,1.2065 l 14.859,40.767 q 0.127,0.254 0.127,0.5715 0,0.508 -0.4445,0.9525 -0.381,0.381 -0.9525,0.381 h -7.8105 q -0.9525,0 -1.4605,-0.4445 -0.4445,-0.508 -0.5715,-0.889 l -2.4765,-6.477 h -16.9545 l -2.413001,6.477 q -0.127,0.381 -0.5715,0.889 -0.4445,0.4445 -1.524,0.4445 z m 14.922501,-16.9545 h 11.811 l -5.9055,-16.764 z"
         style="font-style:normal;font-variant:normal;font-weight:bold;font-stretch:normal;font-size:63.5px;font-family:Rubik;-inkscape-font-specification:'Rubik Bold';stroke-width:0.264583"
         id="path1521" />
    </g>
    <text
       xml:space="preserve"
       style="font-size:63.5px;line-height:1.25;font-family:Rubik;-inkscape-font-specification:Rubik;letter-spacing:0px;word-spacing:-2.65112px;stroke-width:0.264583;filter:url(#filter857-4)"
       x="24.077108"
       y="89.958336"
       id="text835-1"><tspan
         sodipodi:role="line"
         id="tspan833-2"
         x="24.077108"
         y="89.958336"
         style="font-style:normal;font-variant:normal;font-weight:600;font-stretch:normal;font-size:63.5px;font-family:Rubik;-inkscape-font-specification:'Rubik Semi-Bold';stroke-width:0.264583"
         rotate="0" /></text>
    <text
       xml:space="preserve"
       id="text1442"
       style="line-height:1.25;font-family:Rubik;font-size:10.58333333px;-inkscape-font-specification:Rubik;white-space:pre;shape-inside:url(#rect1444);" />
  </g>
</svg>
