<?xml version="1.0" encoding="UTF-8" standalone="no"?>
<svg
   xmlns:dc="http://purl.org/dc/elements/1.1/"
   xmlns:cc="http://creativecommons.org/ns#"
   xmlns:rdf="http://www.w3.org/1999/02/22-rdf-syntax-ns#"
   xmlns:svg="http://www.w3.org/2000/svg"
   xmlns="http://www.w3.org/2000/svg"
   xmlns:sodipodi="http://sodipodi.sourceforge.net/DTD/sodipodi-0.dtd"
   xmlns:inkscape="http://www.inkscape.org/namespaces/inkscape"
   width="512"
   height="512"
   viewBox="0 0 135.46666 135.46667"
   version="1.1"
   id="svg8"
   sodipodi:docname="ing.svg"
   inkscape:version="1.0.1 (3bc2e813f5, 2020-09-07)">
  <defs
     id="defs2">
    <filter
       inkscape:collect="always"
       style="color-interpolation-filters:sRGB"
       id="filter857"
       x="-1.6979314e-05"
       width="1.000034"
       y="-2.6553722e-05"
       height="1.0000531">
      <feGaussianBlur
         inkscape:collect="always"
         stdDeviation="0.00081498152"
         id="feGaussianBlur859" />
    </filter>
    <filter
       inkscape:collect="always"
       style="color-interpolation-filters:sRGB"
       id="filter857-4"
       x="-1.6979315e-05"
       width="1.000034"
       y="-2.6553722e-05"
       height="1.000053">
      <feGaussianBlur
         inkscape:collect="always"
         stdDeviation="0.00081498152"
         id="feGaussianBlur859-8" />
    </filter>
  </defs>
  <sodipodi:namedview
     id="base"
     pagecolor="#ffffff"
     bordercolor="#666666"
     borderopacity="1.0"
     inkscape:pageopacity="0.0"
     inkscape:pageshadow="2"
     inkscape:zoom="1.0214508"
     inkscape:cx="248.70007"
     inkscape:cy="143.46045"
     inkscape:document-units="mm"
     inkscape:current-layer="layer1"
     inkscape:document-rotation="0"
     showgrid="false"
     units="px"
     inkscape:window-width="1848"
     inkscape:window-height="1016"
     inkscape:window-x="72"
     inkscape:window-y="27"
     inkscape:window-maximized="1" />
  <metadata
     id="metadata5">
    <rdf:RDF>
      <cc:Work
         rdf:about="">
        <dc:format>image/svg+xml</dc:format>
        <dc:type
           rdf:resource="http://purl.org/dc/dcmitype/StillImage" />
        <dc:title></dc:title>
      </cc:Work>
    </rdf:RDF>
  </metadata>
  <g
     inkscape:label="Layer 1"
     inkscape:groupmode="layer"
     id="layer1">
    <g
       aria-label="ING"
       id="text835"
       style="font-size:63.5px;line-height:1.25;font-family:Rubik;-inkscape-font-specification:Rubik;letter-spacing:0px;word-spacing:0px;stroke-width:0.264583;filter:url(#filter857)">
      <path
         d="m 16.996855,89.958336 q -0.6985,0 -1.143,-0.4445 -0.4445,-0.508 -0.4445,-1.143 v -41.275 q 0,-0.6985 0.4445,-1.143 0.4445,-0.4445 1.143,-0.4445 h 8.509 q 0.6985,0 1.143,0.4445 0.508,0.4445 0.508,1.143 v 41.275 q 0,0.635 -0.508,1.143 -0.4445,0.4445 -1.143,0.4445 z"
         style="font-style:normal;font-variant:normal;font-weight:bold;font-stretch:normal;font-size:63.5px;font-family:Rubik;-inkscape-font-specification:'Rubik Bold';stroke-width:0.264583"
         id="path1210" />
      <path
         d="m 37.570819,89.958336 q -0.6985,0 -1.143,-0.4445 -0.4445,-0.508 -0.4445,-1.143 v -41.275 q 0,-0.6985 0.4445,-1.143 0.4445,-0.4445 1.143,-0.4445 h 6.731 q 1.0795,0 1.524,0.508 0.508,0.4445 0.635,0.6985 l 15.494,24.384 v -24.003 q 0,-0.6985 0.4445,-1.143 0.4445,-0.4445 1.143,-0.4445 h 7.62 q 0.6985,0 1.143,0.4445 0.4445,0.4445 0.4445,1.143 v 41.2115 q 0,0.6985 -0.4445,1.2065 -0.4445,0.4445 -1.143,0.4445 h -6.7945 q -1.016,0 -1.524,-0.508 -0.4445,-0.508 -0.5715,-0.6985 l -15.494,-23.495 v 23.114 q 0,0.635 -0.4445,1.143 -0.4445,0.4445 -1.143,0.4445 z"
         style="font-style:normal;font-variant:normal;font-weight:bold;font-stretch:normal;font-size:63.5px;font-family:Rubik;-inkscape-font-specification:'Rubik Bold';stroke-width:0.264583"
         id="path1212" />
      <path
         d="m 99.991309,90.593336 q -6.0325,0 -10.414,-1.9685 -4.318,-2.032 -6.731,-5.842 -2.3495,-3.8735 -2.6035,-9.398 -0.0635,-2.7305 -0.0635,-5.7785 0,-3.1115 0.0635,-5.9055 0.254,-5.3975 2.667,-9.144 2.413,-3.7465 6.7945,-5.715 4.3815,-1.9685 10.287,-1.9685 4.762501,0 8.445501,1.2065 3.683,1.143 6.1595,3.1115 2.54,1.9685 3.8735,4.318 1.3335,2.3495 1.397,4.6355 0,0.5715 -0.4445,0.9525 -0.381,0.381 -0.9525,0.381 h -9.271 q -0.6985,0 -1.0795,-0.1905 -0.3175,-0.254 -0.5715,-0.6985 -0.4445,-0.9525 -1.3335,-1.9685 -0.8255,-1.0795 -2.3495,-1.8415 -1.4605,-0.762 -3.873501,-0.762 -3.556,0 -5.6515,1.905 -2.0955,1.905 -2.286,6.096 -0.1905,5.461 0,11.049 0.1905,4.445 2.3495,6.4135 2.159,1.9685 5.778501,1.9685 2.3495,0 4.191,-0.8255 1.905,-0.8255 2.9845,-2.54 1.0795,-1.778 1.0795,-4.5085 v -1.2065 h -5.969 q -0.6985,0 -1.143,-0.4445 -0.4445,-0.508 -0.4445,-1.2065 v -4.699 q 0,-0.6985 0.4445,-1.143 0.4445,-0.508 1.143,-0.508 h 16.002 q 0.6985,0 1.143,0.508 0.4445,0.4445 0.4445,1.143 v 7.239 q 0,5.461 -2.4765,9.3345 -2.4765,3.8735 -7.0485,5.969 -4.5085,2.032 -10.541001,2.032 z"
         style="font-style:normal;font-variant:normal;font-weight:bold;font-stretch:normal;font-size:63.5px;font-family:Rubik;-inkscape-font-specification:'Rubik Bold';stroke-width:0.264583"
         id="path1214" />
    </g>
    <text
       xml:space="preserve"
       style="font-size:63.5px;line-height:1.25;font-family:Rubik;-inkscape-font-specification:Rubik;letter-spacing:0px;word-spacing:-2.65112px;stroke-width:0.264583;filter:url(#filter857-4)"
       x="24.077108"
       y="89.958336"
       id="text835-1"><tspan
         sodipodi:role="line"
         id="tspan833-2"
         x="24.077108"
         y="89.958336"
         style="font-style:normal;font-variant:normal;font-weight:600;font-stretch:normal;font-size:63.5px;font-family:Rubik;-inkscape-font-specification:'Rubik Semi-Bold';stroke-width:0.264583"
         rotate="0" /></text>
  </g>
</svg>
