<?xml version="1.0" encoding="UTF-8" standalone="no"?>
<svg
   xmlns:dc="http://purl.org/dc/elements/1.1/"
   xmlns:cc="http://creativecommons.org/ns#"
   xmlns:rdf="http://www.w3.org/1999/02/22-rdf-syntax-ns#"
   xmlns:svg="http://www.w3.org/2000/svg"
   xmlns="http://www.w3.org/2000/svg"
   xmlns:sodipodi="http://sodipodi.sourceforge.net/DTD/sodipodi-0.dtd"
   xmlns:inkscape="http://www.inkscape.org/namespaces/inkscape"
   width="512"
   height="512"
   viewBox="0 0 135.46666 135.46667"
   version="1.1"
   id="svg8"
   sodipodi:docname="no.svg"
   inkscape:version="1.0.1 (3bc2e813f5, 2020-09-07)">
  <defs
     id="defs2">
    <filter
       inkscape:collect="always"
       style="color-interpolation-filters:sRGB"
       id="filter857"
       x="-1.6979314e-05"
       width="1.000034"
       y="-2.6553722e-05"
       height="1.0000531">
      <feGaussianBlur
         inkscape:collect="always"
         stdDeviation="0.00081498152"
         id="feGaussianBlur859" />
    </filter>
    <filter
       inkscape:collect="always"
       style="color-interpolation-filters:sRGB"
       id="filter857-4"
       x="-1.6979315e-05"
       width="1.000034"
       y="-2.6553722e-05"
       height="1.000053">
      <feGaussianBlur
         inkscape:collect="always"
         stdDeviation="0.00081498152"
         id="feGaussianBlur859-8" />
    </filter>
  </defs>
  <sodipodi:namedview
     id="base"
     pagecolor="#ffffff"
     bordercolor="#666666"
     borderopacity="1.0"
     inkscape:pageopacity="0.0"
     inkscape:pageshadow="2"
     inkscape:zoom="1.0214508"
     inkscape:cx="248.70007"
     inkscape:cy="143.46045"
     inkscape:document-units="mm"
     inkscape:current-layer="layer1"
     inkscape:document-rotation="0"
     showgrid="false"
     units="px"
     inkscape:window-width="1848"
     inkscape:window-height="1016"
     inkscape:window-x="72"
     inkscape:window-y="27"
     inkscape:window-maximized="1" />
  <metadata
     id="metadata5">
    <rdf:RDF>
      <cc:Work
         rdf:about="">
        <dc:format>image/svg+xml</dc:format>
        <dc:type
           rdf:resource="http://purl.org/dc/dcmitype/StillImage" />
        <dc:title></dc:title>
      </cc:Work>
    </rdf:RDF>
  </metadata>
  <g
     inkscape:label="Layer 1"
     inkscape:groupmode="layer"
     id="layer1">
    <g
       aria-label="NO"
       id="text835"
       style="font-size:63.5px;line-height:1.25;font-family:Rubik;-inkscape-font-specification:Rubik;letter-spacing:0px;word-spacing:0px;stroke-width:0.264583;filter:url(#filter857)">
      <path
         d="m 27.569588,89.958336 q -0.6985,0 -1.143,-0.4445 -0.4445,-0.508 -0.4445,-1.143 v -41.275 q 0,-0.6985 0.4445,-1.143 0.4445,-0.4445 1.143,-0.4445 h 6.731 q 1.0795,0 1.524,0.508 0.508,0.4445 0.635,0.6985 l 15.494,24.384 v -24.003 q 0,-0.6985 0.4445,-1.143 0.4445,-0.4445 1.143,-0.4445 h 7.62 q 0.6985,0 1.143,0.4445 0.4445,0.4445 0.4445,1.143 v 41.2115 q 0,0.6985 -0.4445,1.2065 -0.4445,0.4445 -1.143,0.4445 h -6.7945 q -1.016,0 -1.524,-0.508 -0.4445,-0.508 -0.5715,-0.6985 l -15.494,-23.495 v 23.114 q 0,0.635 -0.4445,1.143 -0.4445,0.4445 -1.143,0.4445 z"
         style="font-style:normal;font-variant:normal;font-weight:bold;font-stretch:normal;font-size:63.5px;font-family:Rubik;-inkscape-font-specification:'Rubik Bold';stroke-width:0.264583"
         id="path1373" />
      <path
         d="m 89.799579,90.593336 q -5.842,0 -10.16,-1.905 -4.318,-1.905 -6.731,-5.715 -2.413,-3.8735 -2.667,-9.652 -0.0635,-2.7305 -0.0635,-5.461 0,-2.794 0.0635,-5.5245 0.254,-5.715 2.667,-9.5885 2.4765,-3.937 6.7945,-5.9055 4.3815,-1.9685 10.0965,-1.9685 5.7785,0 10.0965,1.9685 4.318001,1.9685 6.794501,5.9055 2.4765,3.8735 2.667,9.5885 0.127,2.7305 0.127,5.5245 0,2.7305 -0.127,5.461 -0.1905,5.7785 -2.667,9.652 -2.413,3.81 -6.731001,5.715 -4.318,1.905 -10.16,1.905 z m 0,-9.144 q 3.3655,0 5.461,-2.032 2.159,-2.032 2.286,-6.477 0.127,-2.794 0.127,-5.2705 0,-2.4765 -0.127,-5.1435 -0.127,-2.9845 -1.143,-4.826 -0.9525,-1.905 -2.667,-2.794 -1.7145,-0.889 -3.937,-0.889 -2.159,0 -3.8735,0.889 -1.7145,0.889 -2.7305,2.794 -1.016,1.8415 -1.143,4.826 -0.0635,2.667 -0.0635,5.1435 0,2.4765 0.0635,5.2705 0.1905,4.445 2.286,6.477 2.159,2.032 5.461,2.032 z"
         style="font-style:normal;font-variant:normal;font-weight:bold;font-stretch:normal;font-size:63.5px;font-family:Rubik;-inkscape-font-specification:'Rubik Bold';stroke-width:0.264583"
         id="path1375" />
    </g>
    <text
       xml:space="preserve"
       style="font-size:63.5px;line-height:1.25;font-family:Rubik;-inkscape-font-specification:Rubik;letter-spacing:0px;word-spacing:-2.65112px;stroke-width:0.264583;filter:url(#filter857-4)"
       x="24.077108"
       y="89.958336"
       id="text835-1"><tspan
         sodipodi:role="line"
         id="tspan833-2"
         x="24.077108"
         y="89.958336"
         style="font-style:normal;font-variant:normal;font-weight:600;font-stretch:normal;font-size:63.5px;font-family:Rubik;-inkscape-font-specification:'Rubik Semi-Bold';stroke-width:0.264583"
         rotate="0" /></text>
  </g>
</svg>
