<?xml version="1.0" encoding="UTF-8" standalone="no"?>
<svg
   xmlns:dc="http://purl.org/dc/elements/1.1/"
   xmlns:cc="http://creativecommons.org/ns#"
   xmlns:rdf="http://www.w3.org/1999/02/22-rdf-syntax-ns#"
   xmlns:svg="http://www.w3.org/2000/svg"
   xmlns="http://www.w3.org/2000/svg"
   xmlns:sodipodi="http://sodipodi.sourceforge.net/DTD/sodipodi-0.dtd"
   xmlns:inkscape="http://www.inkscape.org/namespaces/inkscape"
   width="512"
   height="512"
   viewBox="0 0 135.46666 135.46667"
   version="1.1"
   id="svg8"
   sodipodi:docname="rc.svg"
   inkscape:version="1.0.1 (3bc2e813f5, 2020-09-07)">
  <defs
     id="defs2">
    <filter
       inkscape:collect="always"
       style="color-interpolation-filters:sRGB"
       id="filter857"
       x="-1.6979314e-05"
       width="1.000034"
       y="-2.6553722e-05"
       height="1.0000531">
      <feGaussianBlur
         inkscape:collect="always"
         stdDeviation="0.00081498152"
         id="feGaussianBlur859" />
    </filter>
    <filter
       inkscape:collect="always"
       style="color-interpolation-filters:sRGB"
       id="filter857-4"
       x="-1.6979315e-05"
       width="1.000034"
       y="-2.6553722e-05"
       height="1.000053">
      <feGaussianBlur
         inkscape:collect="always"
         stdDeviation="0.00081498152"
         id="feGaussianBlur859-8" />
    </filter>
  </defs>
  <sodipodi:namedview
     id="base"
     pagecolor="#ffffff"
     bordercolor="#666666"
     borderopacity="1.0"
     inkscape:pageopacity="0.0"
     inkscape:pageshadow="2"
     inkscape:zoom="1.0214508"
     inkscape:cx="248.70007"
     inkscape:cy="143.46045"
     inkscape:document-units="mm"
     inkscape:current-layer="layer1"
     inkscape:document-rotation="0"
     showgrid="false"
     units="px"
     inkscape:window-width="1848"
     inkscape:window-height="1016"
     inkscape:window-x="72"
     inkscape:window-y="27"
     inkscape:window-maximized="1" />
  <metadata
     id="metadata5">
    <rdf:RDF>
      <cc:Work
         rdf:about="">
        <dc:format>image/svg+xml</dc:format>
        <dc:type
           rdf:resource="http://purl.org/dc/dcmitype/StillImage" />
        <dc:title></dc:title>
      </cc:Work>
    </rdf:RDF>
  </metadata>
  <g
     inkscape:label="Layer 1"
     inkscape:groupmode="layer"
     id="layer1">
    <g
       aria-label="RC"
       id="text835"
       style="font-size:63.5px;line-height:1.25;font-family:Rubik;-inkscape-font-specification:Rubik;letter-spacing:0px;word-spacing:0px;stroke-width:0.264583;filter:url(#filter857)">
      <path
         d="m 28.518124,89.958336 q -0.6985,0 -1.143,-0.4445 -0.4445,-0.508 -0.4445,-1.143 v -41.275 q 0,-0.6985 0.4445,-1.143 0.4445,-0.4445 1.143,-0.4445 h 17.272 q 8.255,0 12.954,3.81 4.699,3.7465 4.699,10.668 0,4.5085 -2.159,7.62 -2.159,3.1115 -5.715,4.699 l 8.6995,15.621 q 0.1905,0.381 0.1905,0.6985 0,0.508 -0.4445,0.9525 -0.381,0.381 -0.889,0.381 h -8.4455 q -1.2065,0 -1.778,-0.5715 -0.5715,-0.635 -0.8255,-1.143 l -7.239,-13.97 h -6.477 v 14.097 q 0,0.635 -0.508,1.143 -0.4445,0.4445 -1.143,0.4445 z m 9.8425,-24.7015 h 7.3025 q 2.9845,0 4.445,-1.4605 1.524,-1.4605 1.524,-3.937 0,-2.4765 -1.4605,-4.0005 -1.397,-1.524 -4.5085,-1.524 h -7.3025 z"
         style="font-style:normal;font-variant:normal;font-weight:bold;font-stretch:normal;font-size:63.5px;font-family:Rubik;-inkscape-font-specification:'Rubik Bold';stroke-width:0.264583"
         id="path1396" />
      <path
         d="m 88.843105,90.593336 q -5.969,0 -10.287,-1.9685 -4.318,-1.9685 -6.731,-5.7785 -2.3495,-3.81 -2.6035,-9.4615 -0.0635,-2.6035 -0.0635,-5.588 0,-2.9845 0.0635,-5.715 0.254,-5.5245 2.667,-9.398 2.413,-3.8735 6.731,-5.842 4.318,-1.9685 10.2235,-1.9685 4.191,0 7.747,1.0795 3.555995,1.016 6.222995,3.048 2.667,1.9685 4.1275,4.826 1.524,2.794 1.5875,6.35 0.0635,0.5715 -0.381,0.9525 -0.381,0.381 -0.9525,0.381 h -8.572495 q -0.8255,0 -1.27,-0.3175 -0.4445,-0.381 -0.762,-1.3335 -0.889,-3.3655 -2.921,-4.572 -1.9685,-1.27 -4.8895,-1.27 -3.4925,0 -5.5245,1.9685 -2.032,1.905 -2.2225,6.4135 -0.1905,5.207 0,10.668 0.1905,4.5085 2.2225,6.477 2.032,1.905 5.5245,1.905 2.921,0 4.953,-1.27 2.032,-1.27 2.8575,-4.572 0.254,-0.9525 0.6985,-1.27 0.508,-0.381 1.3335,-0.381 h 8.572495 q 0.5715,0 0.9525,0.381 0.4445,0.381 0.381,0.9525 -0.0635,3.556 -1.5875,6.4135 -1.4605,2.794 -4.1275,4.826 -2.667,1.9685 -6.222995,3.048 -3.556,1.016 -7.747,1.016 z"
         style="font-style:normal;font-variant:normal;font-weight:bold;font-stretch:normal;font-size:63.5px;font-family:Rubik;-inkscape-font-specification:'Rubik Bold';stroke-width:0.264583"
         id="path1398" />
    </g>
    <text
       xml:space="preserve"
       style="font-size:63.5px;line-height:1.25;font-family:Rubik;-inkscape-font-specification:Rubik;letter-spacing:0px;word-spacing:-2.65112px;stroke-width:0.264583;filter:url(#filter857-4)"
       x="24.077108"
       y="89.958336"
       id="text835-1"><tspan
         sodipodi:role="line"
         id="tspan833-2"
         x="24.077108"
         y="89.958336"
         style="font-style:normal;font-variant:normal;font-weight:600;font-stretch:normal;font-size:63.5px;font-family:Rubik;-inkscape-font-specification:'Rubik Semi-Bold';stroke-width:0.264583"
         rotate="0" /></text>
  </g>
</svg>
