<?xml version="1.0" encoding="UTF-8" standalone="no"?>
<svg
   xmlns:dc="http://purl.org/dc/elements/1.1/"
   xmlns:cc="http://creativecommons.org/ns#"
   xmlns:rdf="http://www.w3.org/1999/02/22-rdf-syntax-ns#"
   xmlns:svg="http://www.w3.org/2000/svg"
   xmlns="http://www.w3.org/2000/svg"
   xmlns:sodipodi="http://sodipodi.sourceforge.net/DTD/sodipodi-0.dtd"
   xmlns:inkscape="http://www.inkscape.org/namespaces/inkscape"
   width="512"
   height="512"
   viewBox="0 0 135.46666 135.46667"
   version="1.1"
   id="svg8"
   sodipodi:docname="svc.svg"
   inkscape:version="1.0.1 (3bc2e813f5, 2020-09-07)">
  <defs
     id="defs2">
    <filter
       inkscape:collect="always"
       style="color-interpolation-filters:sRGB"
       id="filter857"
       x="-1.6979314e-05"
       width="1.000034"
       y="-2.6553722e-05"
       height="1.0000531">
      <feGaussianBlur
         inkscape:collect="always"
         stdDeviation="0.00081498152"
         id="feGaussianBlur859" />
    </filter>
    <filter
       inkscape:collect="always"
       style="color-interpolation-filters:sRGB"
       id="filter857-4"
       x="-1.6979315e-05"
       width="1.000034"
       y="-2.6553722e-05"
       height="1.000053">
      <feGaussianBlur
         inkscape:collect="always"
         stdDeviation="0.00081498152"
         id="feGaussianBlur859-8" />
    </filter>
  </defs>
  <sodipodi:namedview
     id="base"
     pagecolor="#ffffff"
     bordercolor="#666666"
     borderopacity="1.0"
     inkscape:pageopacity="0.0"
     inkscape:pageshadow="2"
     inkscape:zoom="1.0214508"
     inkscape:cx="248.70007"
     inkscape:cy="143.46045"
     inkscape:document-units="mm"
     inkscape:current-layer="layer1"
     inkscape:document-rotation="0"
     showgrid="false"
     units="px"
     inkscape:window-width="1848"
     inkscape:window-height="1016"
     inkscape:window-x="72"
     inkscape:window-y="27"
     inkscape:window-maximized="1" />
  <metadata
     id="metadata5">
    <rdf:RDF>
      <cc:Work
         rdf:about="">
        <dc:format>image/svg+xml</dc:format>
        <dc:type
           rdf:resource="http://purl.org/dc/dcmitype/StillImage" />
        <dc:title></dc:title>
      </cc:Work>
    </rdf:RDF>
  </metadata>
  <g
     inkscape:label="Layer 1"
     inkscape:groupmode="layer"
     id="layer1">
    <g
       aria-label="SVC"
       id="text835"
       style="font-size:63.5px;line-height:1.25;font-family:Rubik;-inkscape-font-specification:Rubik;letter-spacing:0px;word-spacing:0px;stroke-width:0.264583;filter:url(#filter857)">
      <path
         d="m 25.025771,90.593336 q -6.35,0 -10.541,-1.778 -4.191,-1.8415 -6.3499997,-4.7625 -2.159,-2.921 -2.286,-6.223 0,-0.508 0.381,-0.889 0.4445,-0.4445 1.016,-0.4445 h 8.0009997 q 0.889,0 1.3335,0.3175 0.508,0.3175 0.889,0.8255 0.508,0.9525 1.397,1.8415 0.9525,0.889 2.4765,1.4605 1.524,0.508 3.683,0.508 3.683,0 5.5245,-1.143 1.905,-1.143 1.905,-3.1115 0,-1.4605 -1.016,-2.3495 -1.016,-0.889 -3.302,-1.5875 -2.2225,-0.762 -5.969,-1.524 -4.826,-1.016 -8.255,-2.6035 -3.3655,-1.651 -5.1434997,-4.2545 -1.778,-2.667 -1.778,-6.604 0,-3.8735 2.159,-6.9215 2.2224997,-3.048 6.1594997,-4.7625 3.937,-1.7145 9.3345,-1.7145 4.3815,0 7.6835,1.143 3.3655,1.143 5.6515,3.048 2.286,1.905 3.429,4.064 1.2065,2.0955 1.27,4.1275 0,0.508 -0.381,0.9525 -0.3175,0.381 -0.9525,0.381 h -8.382 q -0.6985,0 -1.2065,-0.254 -0.508,-0.254 -0.889,-0.8255 -0.381,-1.397 -2.032,-2.413 -1.5875,-1.0795 -4.191,-1.0795 -2.794,0 -4.3815,1.016 -1.524,0.9525 -1.524,2.9845 0,1.27 0.8255,2.2225 0.889,0.9525 2.8575,1.651 2.032,0.6985 5.5245,1.4605 5.7785,1.0795 9.3345,2.7305 3.556,1.5875 5.207,4.191 1.7145,2.54 1.7145,6.4135 0,4.318 -2.4765,7.4295 -2.4765,3.1115 -6.7945,4.826 -4.2545,1.651 -9.906,1.651 z"
         style="font-style:normal;font-variant:normal;font-weight:bold;font-stretch:normal;font-size:63.5px;font-family:Rubik;-inkscape-font-specification:'Rubik Bold';stroke-width:0.264583"
         id="path1235" />
      <path
         d="m 61.728645,89.958336 q -1.0795,0 -1.7145,-0.5715 -0.635,-0.5715 -0.889,-1.3335 l -12.954,-40.64 q -0.127,-0.3175 -0.127,-0.5715 0,-0.508 0.381,-0.889 0.4445,-0.4445 1.016,-0.4445 h 7.874 q 1.016,0 1.5875,0.5715 0.5715,0.5715 0.6985,1.0795 l 9.017,29.337 8.9535,-29.337 q 0.1905,-0.508 0.6985,-1.0795 0.5715,-0.5715 1.5875,-0.5715 h 7.9375 q 0.508,0 0.889,0.4445 0.4445,0.381 0.4445,0.889 0,0.254 -0.127,0.5715 l -12.954,40.64 q -0.1905,0.762 -0.8255,1.3335 -0.635,0.5715 -1.778,0.5715 z"
         style="font-style:normal;font-variant:normal;font-weight:bold;font-stretch:normal;font-size:63.5px;font-family:Rubik;-inkscape-font-specification:'Rubik Bold';stroke-width:0.264583"
         id="path1237" />
      <path
         d="m 109.92496,90.593336 q -5.969,0 -10.287005,-1.9685 -4.318,-1.9685 -6.731,-5.7785 -2.3495,-3.81 -2.6035,-9.4615 -0.0635,-2.6035 -0.0635,-5.588 0,-2.9845 0.0635,-5.715 0.254,-5.5245 2.667,-9.398 2.413,-3.8735 6.731,-5.842 4.318005,-1.9685 10.223505,-1.9685 4.191,0 7.747,1.0795 3.556,1.016 6.223,3.048 2.667,1.9685 4.1275,4.826 1.524,2.794 1.5875,6.35 0.0635,0.5715 -0.381,0.9525 -0.381,0.381 -0.9525,0.381 h -8.5725 q -0.8255,0 -1.27,-0.3175 -0.4445,-0.381 -0.762,-1.3335 -0.889,-3.3655 -2.921,-4.572 -1.9685,-1.27 -4.8895,-1.27 -3.4925,0 -5.5245,1.9685 -2.032,1.905 -2.2225,6.4135 -0.1905,5.207 0,10.668 0.1905,4.5085 2.2225,6.477 2.032,1.905 5.5245,1.905 2.921,0 4.953,-1.27 2.032,-1.27 2.8575,-4.572 0.254,-0.9525 0.6985,-1.27 0.508,-0.381 1.3335,-0.381 h 8.5725 q 0.5715,0 0.9525,0.381 0.4445,0.381 0.381,0.9525 -0.0635,3.556 -1.5875,6.4135 -1.4605,2.794 -4.1275,4.826 -2.667,1.9685 -6.223,3.048 -3.556,1.016 -7.747,1.016 z"
         style="font-style:normal;font-variant:normal;font-weight:bold;font-stretch:normal;font-size:63.5px;font-family:Rubik;-inkscape-font-specification:'Rubik Bold';stroke-width:0.264583"
         id="path1239" />
    </g>
    <text
       xml:space="preserve"
       style="font-size:63.5px;line-height:1.25;font-family:Rubik;-inkscape-font-specification:Rubik;letter-spacing:0px;word-spacing:-2.65112px;stroke-width:0.264583;filter:url(#filter857-4)"
       x="24.077108"
       y="89.958336"
       id="text835-1"><tspan
         sodipodi:role="line"
         id="tspan833-2"
         x="24.077108"
         y="89.958336"
         style="font-style:normal;font-variant:normal;font-weight:600;font-stretch:normal;font-size:63.5px;font-family:Rubik;-inkscape-font-specification:'Rubik Semi-Bold';stroke-width:0.264583"
         rotate="0" /></text>
  </g>
</svg>
